#!OML:ASF F:\VICON\USERDATA\INSTALL\rory3\rory3.ASF
:FULLY-SPECIFIED
:DEGREES
64
root 2.66168 17.3504 -13.3392 152.808 -100.081 -153.712
lowerback 35.0005 -0.0177763 0.63414
upperback 6.86833 -0.00632063 4.64693
thorax -10.1568 -0.349068 4.68432
lowerneck -9.66891 -0.199559 -2.88329
upperneck 22.2357 1.25835 -6.52961
head 8.5595 -0.460609 -1.60798
rclavicle 9.54166e-015 -5.24792e-014
rhumerus -15.2995 8.0202 -72.2869
rradius 109.342
rwrist 29.2055
rhand -13.505 6.03311
rfingers 7.12502
rthumb 12.6063 -23.5665
lclavicle 9.54166e-015 -5.24792e-014
lhumerus -43.3257 9.53335 79.2319
lradius 58.1805
lwrist 6.97878
lhand -17.2118 51.7169
lfingers 7.12502
lthumb 9.03095 81.5036
rfemur -19.6665 -1.50913 15.609
rtibia 52.3744
rfoot -20.8652 -14.202
rtoes -4.53372
lfemur -23.8549 -4.3701 -3.04588
ltibia 43.2049
lfoot -0.610491 6.47835
ltoes -9.99333
65
root 2.70834 17.289 -13.1916 151.011 -100.311 -151.994
lowerback 35.1103 0.312626 0.0201327
upperback 7.00327 0.189252 4.74979
thorax -10.0751 -0.252907 5.04744
lowerneck -9.35904 -0.20823 -2.94623
upperneck 21.5667 1.23137 -6.58399
head 8.27515 -0.449349 -1.60427
rclavicle 1.19271e-014 9.54166e-015
rhumerus -15.2148 9.13771 -70.8972
rradius 107.484
rwrist 28.5392
rhand -14.5364 6.03193
rfingers 7.12502
rthumb 11.6119 -23.6263
lclavicle 1.19271e-014 9.54166e-015
lhumerus -42.682 9.56949 79.6169
lradius 57.8072
lwrist 7.1071
lhand -16.2714 52.6111
lfingers 7.12502
lthumb 9.93837 82.3565
rfemur -19.8728 -1.88676 14.6207
rtibia 52.8436
rfoot -21.6241 -14.2739
rtoes -4.59842
lfemur -23.4114 -7.88024 -2.37574
ltibia 42.9434
lfoot -1.11538 10.3421
ltoes -9.51473
66
root 2.76054 17.1949 -13.0306 152.659 -99.3899 -154.474
lowerback 36.0126 0.744279 0.328211
upperback 7.26228 0.831373 5.09754
thorax -10.1776 0.00322092 5.01092
lowerneck -10.107 -0.459662 -2.78853
upperneck 21.8363 0.946659 -6.6967
head 8.49914 -0.600176 -1.70658
rclavicle 6.36111e-015 0
rhumerus -14.5779 10.1694 -71.0185
rradius 104.367
rwrist 29.3286
rhand -15.4979 6.60935
rfingers 7.12502
rthumb 10.6845 -23.099
lclavicle 6.36111e-015 0
lhumerus -42.0615 9.54481 80.0488
lradius 57.3594
lwrist 7.12757
lhand -16.517 53.1161
lfingers 7.12502
lthumb 9.70141 82.8727
rfemur -19.4033 -1.58944 14.9027
rtibia 53.2318
rfoot -21.898 -14.5213
rtoes -7.12311
lfemur -22.4158 -4.76452 -0.503244
ltibia 42.7783
lfoot -0.330287 7.99712
ltoes -12.0282
67
root 2.81058 17.1437 -12.8487 152.918 -100.07 -154.726
lowerback 35.9948 0.480128 0.326357
upperback 7.3169 0.488499 5.04342
thorax -10.0791 -0.155993 5.08878
lowerneck -10.6355 -0.512688 -3.07423
upperneck 22.0672 0.91665 -6.41305
head 8.67478 -0.623549 -1.57383
rclavicle -7.95139e-016 6.36111e-015
rhumerus -13.7827 11.4134 -71.5057
rradius 100.921
rwrist 30.0489
rhand -16.396 7.18245
rfingers 7.12502
rthumb 9.8181 -22.5687
lclavicle -7.95139e-016 6.36111e-015
lhumerus -41.6919 9.97885 80.3639
lradius 57.0242
lwrist 6.65426
lhand -16.9743 53.2705
lfingers 7.12502
lthumb 9.26012 83.0471
rfemur -19.5717 -2.75548 13.6817
rtibia 53.5936
rfoot -22.7806 -13.2901
rtoes -4.47314
lfemur -22.5039 -6.85992 0.0606613
ltibia 42.3668
lfoot 0.0231852 9.61582
ltoes -11.7631
68
root 2.85529 17.0839 -12.66 153.481 -100.344 -155.502
lowerback 36.1151 0.359031 0.515011
upperback 7.46918 0.38213 5.04055
thorax -9.93913 -0.220202 5.02523
lowerneck -10.7535 -0.591683 -3.4559
upperneck 21.9784 0.807692 -6.02137
head 8.66296 -0.661371 -1.38739
rclavicle 7.95139e-015 4.77083e-015
rhumerus -12.9498 12.1942 -71.9831
rradius 97.162
rwrist 30.9546
rhand -17.1842 7.89529
rfingers 7.12502
rthumb 9.0576 -21.8902
lclavicle 7.95139e-015 4.77083e-015
lhumerus -41.1983 10.1269 80.7826
lradius 56.6434
lwrist 6.09715
lhand -16.0168 51.5295
lfingers 7.12502
lthumb 10.1839 81.263
rfemur -19.4975 -2.63722 13.0726
rtibia 53.9121
rfoot -23.0411 -14.3451
rtoes -7.22101
lfemur -22.2766 -8.28033 0.868146
ltibia 42.031
lfoot 0.195736 10.9098
ltoes -10.247
69
root 2.90146 17.0294 -12.4717 152.839 -100.38 -155.252
lowerback 36.6072 0.473543 0.625634
upperback 7.54187 0.540657 4.97975
thorax -9.9195 -0.163998 4.8616
lowerneck -10.5131 -0.636805 -3.2968
upperneck 21.6308 0.682135 -5.97671
head 8.49597 -0.683077 -1.40364
rclavicle 1.19271e-014 5.24792e-014
rhumerus -12.1864 12.5004 -72.419
rradius 93.1202
rwrist 31.9124
rhand -18.1442 8.55828
rfingers 7.12502
rthumb 8.1312 -21.2653
lclavicle 1.19271e-014 5.24792e-014
lhumerus -40.5259 9.17991 81.2879
lradius 56.1421
lwrist 6.17017
lhand -23.3266 51.8043
lfingers 7.12502
lthumb 3.12768 81.7611
rfemur -19.2175 -2.39544 12.2774
rtibia 54.1746
rfoot -23.3534 -14.5845
rtoes -8.48332
lfemur -21.6363 -8.92081 1.50226
ltibia 41.5214
lfoot 0.622776 11.6065
ltoes -9.7661
70
root 2.9567 16.965 -12.2999 153.213 -100.37 -155.568
lowerback 36.6365 0.680834 0.425892
upperback 7.59591 0.733013 5.08711
thorax -9.89385 -0.0753227 5.00674
lowerneck -11.1596 -0.771649 -2.71473
upperneck 21.9745 0.538067 -6.43347
head 8.73021 -0.769891 -1.68271
rclavicle -1.03368e-014 1.43125e-014
rhumerus -11.3405 12.7899 -72.7802
rradius 89.0384
rwrist 32.647
rhand -18.4731 9.35731
rfingers 7.12502
rthumb 7.8137 -20.4783
lclavicle -1.03368e-014 1.43125e-014
lhumerus -39.8864 8.37522 81.7058
lradius 55.6015
lwrist 6.17619
lhand -30.4228 46.4895
lfingers 7.12502
lthumb -3.72578 76.4367
rfemur -19.5213 -2.28957 11.7006
rtibia 54.4683
rfoot -23.244 -15.0356
rtoes -10.9286
lfemur -21.5834 -9.03928 2.41962
ltibia 41.0798
lfoot 1.05397 11.7822
ltoes -9.16068
71
root 2.98832 16.917 -12.1072 154.296 -100.06 -156.866
lowerback 36.7083 0.83192 0.61462
upperback 7.78222 0.974056 5.21887
thorax -9.73039 0.0165378 4.95049
lowerneck -11.2694 -0.822008 -2.61799
upperneck 21.6585 0.46076 -6.47044
head 8.64031 -0.788816 -1.71398
rclavicle -1.19271e-014 7.95139e-015
rhumerus -10.3769 12.9599 -73.0785
rradius 84.76
rwrist 33.2933
rhand -18.873 9.8225
rfingers 7.12502
rthumb 7.42773 -20.0271
lclavicle -1.19271e-014 7.95139e-015
lhumerus -39.6058 8.53472 82.2696
lradius 55.3727
lwrist 5.23085
lhand -26.6797 51.2177
lfingers 7.12502
lthumb -0.110731 81.1974
rfemur -19.4721 -2.10326 11.3538
rtibia 54.678
rfoot -23.189 -15.5578
rtoes -13.3384
lfemur -21.1021 -9.35617 3.39821
ltibia 40.6953
lfoot 1.36994 12.1585
ltoes -8.76315
72
root 3.03569 16.8688 -11.8974 154.794 -100.107 -157.408
lowerback 36.7761 0.781156 0.899465
upperback 7.8503 1.00416 5.21868
thorax -9.67179 0.0201492 4.78631
lowerneck -11.415 -0.876747 -2.71175
upperneck 21.5793 0.412689 -6.46616
head 8.64003 -0.816357 -1.70165
rclavicle 2.54444e-014 4.77083e-015
rhumerus -9.40148 13.2129 -73.3304
rradius 80.4374
rwrist 33.6983
rhand -18.7611 10.0011
rfingers 7.12502
rthumb 7.53572 -19.8447
lclavicle 2.54444e-014 4.77083e-015
lhumerus -39.115 7.55561 82.6587
lradius 55.0089
lwrist 5.26263
lhand -16.719 51.6735
lfingers 7.12502
lthumb 9.50646 81.4391
rfemur -19.5846 -2.18007 10.6135
rtibia 54.8748
rfoot -23.3328 -15.5246
rtoes -13.6259
lfemur -20.9571 -9.71533 3.97047
ltibia 40.3401
lfoot 2.29435 12.4553
ltoes -9.77445
73
root 3.09432 16.8158 -11.704 157.072 -100.114 -159.631
lowerback 36.8577 0.692182 1.27229
upperback 7.79497 1.04868 5.3196
thorax -9.75884 0.034316 4.68173
lowerneck -11.2645 -0.930221 -2.94677
upperneck 21.4516 0.334442 -6.29071
head 8.56762 -0.846846 -1.60711
rclavicle 8.74653e-015 5.24792e-014
rhumerus -8.4542 13.31 -73.696
rradius 76.038
rwrist 33.968
rhand -17.9987 10.2868
rfingers 7.12502
rthumb 8.27155 -19.5312
lclavicle 8.74653e-015 5.24792e-014
lhumerus -39.1905 6.96921 83.6962
lradius 55.4231
lwrist 7.13487
lhand -20.9394 52.3786
lfingers 7.12502
lthumb 5.43287 82.289
rfemur -19.8405 -2.1261 10.2856
rtibia 55.0548
rfoot -23.2467 -15.7189
rtoes -14.348
lfemur -21.0536 -9.77111 4.95318
ltibia 40.0137
lfoot 3.49213 12.1212
ltoes -10.6684
